# xmcd
# 
# Track frame offsets:
#     150
#     22111
#     39896
#     57833
#     74887
#     89865
#     108528
#     125607
#     143192
#     167467
#     183248
#     200747
# 
# Disc length: 2880
# 
# Revision: 1
# Processed by: cddbd v1.5.2PL0 Copyright (c) Steve Scherf et al.
# Submitted via: fre:ac v1.0.31
# 
DISCID=b60b3e0c
DTITLE=War - The Hits and More Disc 1
DYEAR=2011
DGENRE=R&B
TTITLE0=Spill the Wine
TTITLE1=Tobacco Road
TTITLE2=All Day Music
TTITLE3=Slippin' into Darkness
TTITLE4=Nappy Head (Theme from "Ghetto Man")
TTITLE5=The World is a Ghetto
TTITLE6=The Cisco Kid
TTITLE7=City, Country, City
TTITLE8=Gypsy Man
TTITLE9=Me and Baby Brother
TTITLE10=Southern Part of Texas
TTITLE11=Ballero (Live)
EXTD=
EXTT0=
EXTT1=
EXTT2=
EXTT3=
EXTT4=
EXTT5=
EXTT6=
EXTT7=
EXTT8=
EXTT9=
EXTT10=
EXTT11=
PLAYORDER=
